<?xml version="1.0" encoding="UTF-8"?>
<!-- Generated by Pixelmator Pro 3.5.7 -->
<svg width="46" height="46" viewBox="0 0 46 46" xmlns="http://www.w3.org/2000/svg">
    <path id="Path" fill="#027aff" stroke="none" d="M 46 23 C 46 35.702549 35.702549 46 23 46 C 10.297451 46 0 35.702549 0 23 C -0 10.297451 10.297451 0 23 0 C 35.702549 0 46 10.297451 46 23 Z"/>
    <path id="path1" fill="#ffffff" fill-rule="evenodd" stroke="none" d="M 18.373899 27.7131 C 19.222 29.2715 21.924299 34.219799 21.924299 34.219799 C 21.924299 34.219799 31.9224 14.8584 32.0811 14.541 L 32.0938 14.4839 L 18.373899 27.7131 Z M 11.7676 23.4282 C 11.7676 23.4282 16.400299 26.209299 17.699699 26.981199 L 31.446301 13.9062 C 29.8822 14.6642 11.7676 23.4282 11.7676 23.4282 Z"/>
</svg>
